<svg xmlns="http://www.w3.org/2000/svg" width="64" height="64" viewBox="0 0 64 64">
  <circle cx="32" cy="32" r="32" fill="#f7931a"/>
  <path fill="#fff" d="M44.53 26.68c.55-3.66-2.24-5.63-6.06-6.93l1.24-4.97-3.03-.76-1.21 4.84c-.8-.2-1.62-.39-2.44-.58l1.22-4.88-3.03-.75-1.24 5c-.65-.15-1.33-.3-1.97-.47L28 17.18l-5.83 1.46s1.62.37 1.58.39c.88.22 1.04.81 1.01 1.28l-1.01 4.06c.06.01.14.03.23.07-.07-.02-.15-.04-.22-.05l-1.42 5.67c-.11.27-.38.68-1 .53.02.03-1.58-.4-1.58-.4l-2.9 6.69 5.48 1.37c.61.15 1.2.31 1.8.47l-1.25 5.02 3.03.76 1.24-4.99c.83.23 1.63.44 2.43.64l-1.24 4.96 3.03.76 1.25-5.01c5.17.98 9.06.58 10.7-4.09 1.32-3.77-.07-5.94-2.78-7.36 1.98-.46 3.47-1.76 3.87-4.45zm-6.93 9.72c-.94 3.79-7.32 1.74-9.39 1.23l1.67-6.7c2.07.51 8.73 1.52 7.72 5.47zm.94-9.76c-.86 3.43-6.16 1.69-7.88 1.26l1.52-6.1c1.72.43 7.26 1.26 6.36 4.84z"/>
</svg>
